<?xml version="1.0" encoding="UTF-8"?><svg id="Layer_1" xmlns="http://www.w3.org/2000/svg" viewBox="0 0 400 265.51"><defs><style>.cls-1,.cls-2{fill:#0033a1;}.cls-3,.cls-4{fill:#fff;}.cls-5{fill:#1d1d1b;}.cls-6{fill:#3956b4;}.cls-7{fill:#7b868c;}.cls-4,.cls-2{fill-rule:evenodd;}</style></defs><path class="cls-5" d="M394.46,115.51c1.98-3.13,2.09-7.08,.27-10.31-1.81-3.24-5.25-5.24-8.99-5.24h-56.8c-.85-8.8-8.32-12-15.69-11.29-9.97-.3-14.13-4-19.42-8.33-1.37-10.46-16.08-14.23-26.1-22.26-4.87-3.22-10.86-11.74-21.34-11.42-1.34,.07-2.29,.1-3.4,.2l-2.12-6.95c.64-7.03-3.4-14-12.67-16.28-4.98-6.71-14.93-12.66-29.9-13.27-.23,0-.46,0-.69-.01-.62-.44-1.36-.7-2.16-.7s-1.49,.25-2.13,.68c-1.16,.03-2.29,.09-3.42,.17-1.48-1.72-2.96-2.13-4.03-2.13-2.1,0-3.78,1.54-4.65,3.34-1.53,.32-3.03,.69-4.49,1.11-.73-.53-1.55-.82-2.42-.82-1.08,0-2.11,.48-2.82,1.31-.39,.46-.67,1.01-.84,1.62-7.97,3.22-14.93,7.95-21.11,13.69-4.59,4.17-8.76,8.89-12.61,13.96-5.58-1.9-12.22-5.75-17.91-10.65-.65-1.45-1.62-2.81-2.89-3.76-6.09-4.55-19.65-3.86-25.36,4.13-1.45,2.03-3.48,7.17-2.15,11.62-3.16,7.12-4.86,17.32-2.78,33.58-1.45,1.97-2.42,3.93-3.29,5.67-1.25,2.5-10.48,13.95-13.88,18.39-1.26-.61-2.44-1.12-3.45-1.47,0,0-.78-.28-1.18-.4-2.72-.84-5.5-1.17-8.27-1.18-5.2,0-10.34,1.21-15.12,3.34-4.8,2.14-9.29,5.17-13.6,8.91-9.77,8.4-16.32,19.36-18.96,31.74-.91,4.17-1.38,8.25-1.39,12.23-.02,7.85,1.97,15.43,6.13,21.89,.51,.8,1.07,1.57,1.64,2.33-.54,3.15-.72,6.54-.52,10.27,3.76,67.76,100.35,80.91,128.4,46.3,.54,.47,1.1,.91,1.72,1.29,2.74,1.71,5.95,2.58,9.55,2.58,1.6,0,3.14-.15,4.58-.46,5.79-1.16,10.98-4.06,15.42-8.62,2.72-2.79,5.24-6.3,7.52-10.48,1.57-.64,3.06-1.34,4.47-2.08,1.8,1.64,3.85,2.87,6.11,3.67,2.58,.91,5.55,1.38,8.81,1.38,4.66,0,9.15-.95,13.38-2.84,.91-.41,1.92-.95,3.03-1.62,2.35,2.14,5.77,4.05,10.72,4.6,.21,.03,.43,.04,.64,.05,.09,.01,.19,.03,.31,.05,.5,.09,1,.14,1.5,.14h1.32c4.16,0,8.38-.96,12.58-2.83,.31,.35,.64,.67,1.01,.97,1.45,1.16,3.24,1.77,5.07,1.77,.46,0,.93-.04,1.4-.12l11.04-1.92c1.19-.21,2.29-.67,3.24-1.32,.46,.36,.95,.7,1.46,1.01,.07,.04,.14,.09,.22,.13,2.36,1.35,5.03,2.03,7.93,2.03,3.9,0,8.1-1.27,12.86-3.9,.47-.26,.99-.57,1.58-.92,1.27,1.16,2.68,2.12,4.23,2.85,2.65,1.25,5.64,1.88,8.89,1.88,6.2,0,11.9-1.94,17.02-5.76,2.27,.47,4.65,.48,7.08,.09,1.67,1.91,3.77,3.38,6.18,4.3,2.51,.97,5.39,1.46,8.57,1.46,4.88,0,10.3-1.14,16.58-3.49,5.04-1.89,9.37-4.07,12.89-6.47,1.84-1.26,3.08-3.21,3.44-5.42l.69-4.21c.5-3.08-.8-6.17-3.35-7.97-.48-.33-.98-.61-1.5-.84-.47-1.68-1.32-3.52-2.75-5.45-.23-.32-.43-.6-.6-.85,.18-.27,.38-.59,.63-.95,1.77-2.65,1.83-6.1,.15-8.81-.52-.85-1.2-1.56-1.96-2.15l5.01-23.65,23.49-37.16ZM110.63,72.87c-.1-.12-.2-.24-.29-.36,.03-4.05,.27-6.44,2.03-9.74,1.07,1.69,2.25,3.13,3.51,4.31-1.81,1.86-3.87,4.2-5.25,5.79Zm92.76,26.31c.35-.99,.74-1.98,1.2-3.02,3.42,1.32,6.96,2.34,10.47,3.02h-11.67Zm56.89-8.48c-.48,1.55-3.95,4.71-9.3,8.48h-17.57c3.15-.84,5.53-2.19,6.82-3.94,1.12-1.52,1.4-3.32,.83-5.16-.16-.62-.31-1.26-.46-1.88,4.04-.6,7.13-2.32,9.42-5.23,1.27-.22,2.53-.34,3.75-.34,4.9,0,8.3,1.81,9.68,2.71-.89,.96-2.41,2.89-3.17,5.36Z"/><path class="cls-6" d="M140.73,214.64c-.58-.83-1.11-1.71-1.54-2.66-1.53-3.41-1.97-7.16-1.32-11.18,.3-1.83,.82-3.65,1.57-5.42-3.96-10.89-13.83-17.31-27.81-16.27-12.2,.91-24.12,7.76-24.12,22.02,0,6.68,3.35,15.52,14.26,18.88,3.79,.75,6.92,.73,9.45,.29,1.81-.3,1.78-1.66,0-1.73-5.55-.22-11.48-3.79-11.85-12.62-.03-6.28,2.97-11.68,13.96-11.42,9.05,.22,15.52,9.44,9.96,21.6-3.69,8.06-19.01,14.35-35.31,3.75-10.2-7.21-11.96-20.87-11.21-29.2h-6.04c-3.44,0-6.67-1.71-8.57-4.55-.09-.14-.16-.29-.25-.43-1.23,.76-2.49,1.47-3.78,2.1-5.24,2.59-11.01,4.01-16.84,4h-.08c-4.17,0-8.29-.65-12.15-2.03-.14,1.24-.19,2.5-.07,3.72,5.14,56.21,90.99,65.3,108.71,31.11,.01-.69,.06-1.35,.16-1.99,.39-2.4,1.28-4.63,2.64-6.68,.08-.44,.15-.87,.22-1.3Z"/><path class="cls-6" d="M317.02,96.14c-2.93-1.52-4.34-1.25-4.34-1.25,0,0-1.23-.05-3.15,.54-.72,.22-1.7,.03-2.31-.48-.02-.02-.03-.04-.05-.06-3.54-.72-8.77-3.29-17.9-10.45-1.93-.15-3.84-1.08-3.83-2.57,.26-7.24-11.34-8.33-23.8-18.88-11.82-10.01-17.41-8.64-19.7-6.89-.16,.18-.29,.34-.39,.48,1.09,3.81,2.67,7.02,5.09,8.8,2.67,1.96,5.9,4.76,6.17,9.04,11.58-.49,16.89,5.04,18.66,7.49,1.5-.78,3.2-1.39,5.18-1.73,2.59-.52,3.75,.52,1.94,1.29-2.84,.91-8.93,6.34-10.99,10.48-1.84,3.69-6.66,10.03-10.25,11.37-.25,.69-1.12,1.67-3.52,1.11-1.46-.41-3.34-.33-5.18,.43-.04,.02-.08,.03-.12,.05-1.85,.78-3.26,2.08-4.01,3.43-.76,1.37-.87,2.68-.42,3.78,0,0,0,.02,0,.03,.46,1.09,1.44,1.91,2.92,2.33,1.46,.41,3.34,.32,5.18-.43,.02-.01,.06-.03,.12-.05,1.85-.79,3.26-2.08,4.01-3.44,.38-.68,.6-1.35,.66-1.99,.17-.83,.66-1.41,1.21-1.7,2.54-4.16,13.53-13.86,15.29-12.25,.96,.89-1.8,9.96-3.87,15.7-.18,.49-.57,.74-1.04,.84-.29,.17-.61,.32-.98,.4-.91,.11-1.88,.52-2.83,1.24-1.04,.81-2.01,1.99-2.71,3.47-1.43,3.03-1.18,6.27,.04,8.02,.38,.56,.84,.99,1.39,1.29,1.43,.77,3.29,.52,5.08-.85,1.05-.81,2.02-1.99,2.71-3.47,1.24-2.63,1.22-5.41,.39-7.24-.55-1.24-.06-2.6,.68-3.2,1.51-5.91,5.74-15.85,7.67-15.18,1.18,.41,1.59,11.21,1.96,17.49,.59,.78,.53,2.35-.64,3.57-.73,.63-1.34,1.55-1.78,2.72-.48,1.3-.68,2.88-.49,4.55,.37,3.42,2.31,6.03,4.27,6.79,.63,.25,1.25,.34,1.89,.27h0c1.63-.18,3.11-1.5,3.93-3.72,.48-1.3,.68-2.88,.5-4.55-.32-2.96-1.82-5.31-3.5-6.38-1.11-.72-1.42-2.12-1.13-3.06-1.2-5.52-1.1-18.36,1.42-18.54,1.42-.1,6.59,9.01,9.63,14.57,.86,.45,1.46,1.54,.95,2.75-1.12,1.86-1,5.22,.96,8.22,.88,1.38,2.01,2.46,3.17,3.19,2.16,1.34,4.3,1.47,5.76,.54,.53-.34,.95-.79,1.28-1.35,1.11-1.86,.99-5.22-.97-8.22-1.85-2.74-3.17-3.19-3.17-3.19,0,0-1.03-.65-2.95-1.09-.72-.17-1.48-.81-1.78-1.54-.11-.27-.14-.55-.11-.82-3.14-3.85-8.57-13.85-7.03-14.91,.78-.54,6.45,3.02,10.71,6.03,.23-2.42,3.66-2.22,3.86,.29-.13,2.25,1.55,5.22,4.7,6.93,1.44,.78,2.95,1.19,4.34,1.25,2.56,.1,4.53-.89,5.4-2.48,.32-.59,.49-1.21,.52-1.88,.13-2.25-1.54-5.23-4.7-6.93Z"/><path class="cls-6" d="M222.74,87.51c-.69-.04-1.51-1.33,.15-1.3,.75,.01,1.55-.11,2.21-.38-4.19-1.32-7.95-2.77-11.32-4.33-.78,.04-1.76,.08-3.05,.11-2.03-.21-3.83-.67-5.47-1.26h0c-1.29-.47-2.46-1.03-3.53-1.64-.01,0-.02,0-.03-.01-.35-.2-.69-.41-1.02-.62-.03-.02-.06-.04-.09-.06-.49-.32-.95-.65-1.39-.98-.21-.16-.43-.32-.63-.49-.14-.11-.27-.22-.41-.33-.34-.29-.67-.57-.97-.85,.49,.57,1,1.11,1.52,1.65,.12,.12,.24,.25,.36,.37,1.07,1.1,2.2,2.14,3.39,3.11,.08,.06,.16,.13,.24,.19,1.55,1.25,3.19,2.38,4.93,3.35,13.92,7.73,22.03,5.17,21.97,2.84-.65-.12-1.32-.26-2-.4-1.01,.74-2.66,.98-4.85,1.02Z"/><path class="cls-6" d="M244.79,70.07c-2.84-1.96-6.35-3.97-7.52-18.91-.35-2.8-1.23-6.55-1.78-8.42-1.39-4.46-.93-5.3,.8-2.29,.24-4.96-2.81-8.85-5.76-10.36,1.28,3.28-.73,2.29-1.71,.61-2.02-3.32-10.14-13.15-26.58-13.83-21.33-1.93-35.29,6.1-45.13,15.03-4.81,4.48-8.62,9.13-11.82,12.83,1.1,1.05,2.44,2.9,.98,4.8,0,0-4.76,4.46-17.22-1.08,0,0-6.97-3.93-12.07-8.4-1.89,.02-4.5-.87-5.22-4.28-.75-3.59-8.4-3.51-11.71-1.21-2.56,1.77-4.76,6.07-4.48,8.12l1.86,1.39c.48,.21,.82,.48,1.06,.79l.13,.09s-.02,.03-.03,.04c.68,1.02,.39,2.27,.39,2.27-.58,1.44-1.79,2-2.96,2.18-3.59,8.26-3.93,20.63-2.01,31,.41,1.72-.71,3.22-2.22,3.88-1.48,2.4-5.24,8.57-6.63,11.75,0,0-2.41,4.41-4.45,7.69,.62,1.05,.13,2.74-1.56,3.02-2.25,.06-5.07,1.99-6.49,5.28-.66,1.5-.92,3.04-.86,4.43,.12,2.56,1.28,4.44,2.94,5.16,.61,.27,1.24,.38,1.92,.35,2.26-.06,5.07-1.99,6.5-5.29,1.26-3.06,.87-4.43,.87-4.43,0,0-.06-1.23-.81-3.09-.28-.69-.18-1.69,.28-2.34,.26-.37,.65-.6,1.07-.68,2.03-5.6,7.84-15.16,10.09-14.06,1.57,.76,1.92,14.61,1.55,20.36,.65,.79,.59,2.2-1.29,3.75-.83,.68-1.54,1.66-2.05,2.93-.56,1.41-.82,3.11-.63,4.93,.36,3.71,2.49,6.57,4.7,7.42,.7,.28,1.4,.39,2.12,.32,1.84-.18,3.53-1.58,4.5-3.97,.56-1.4,.82-3.11,.64-4.92-.31-3.22-1.96-5.79-3.84-6.98-1.64-1.05-1.68-3.39-.67-4.13-.31-5.8,1.55-17.94,4.03-17.78,1.52,.1,6.07,10.19,8.19,15.93,1.03,.35,1.72,2.02,.92,3.8-.5,.89-.78,2.01-.79,3.3,0,1.44,.37,3.03,1.17,4.56,1.63,3.14,4.53,4.89,6.79,4.86,.72,0,1.38-.16,1.99-.47h0c1.57-.81,2.58-2.65,2.59-5.09,0-1.44-.37-3.03-1.17-4.56-1.41-2.72-3.78-4.4-5.86-4.77-1.85-.35-2.7-2.43-2.03-3.43-2.69-5.5-5.89-15.69-4-16.43,1.19-.47,8.53,6.18,12.83,10.56,.95-.03,1.98,.6,2.13,1.91-.03,2.26,1.77,5.15,5,6.72,1.47,.72,2.99,1.06,4.39,1.06,2.56,0,4.49-1.08,5.29-2.71h0c.3-.6,.44-1.23,.44-1.91,.03-2.26-1.77-5.15-5-6.72-3-1.39-4.38-1.06-4.38-1.06,0,0-1.23,0-3.12,.68-.71,.25-1.7,.11-2.33-.38-.39-.3-.59-.74-.64-1.19-4.2-2.3-13.27-9.97-12.19-11.54,.75-1.1,13.34,1.86,17.02,3.17,.48-.33,1.27-.52,2.4,0,.15,.07,.3,.14,.46,.23,.17,.1,.34,.2,.52,.34,1.2,.93,2.97,1.56,4.96,1.56h.13c2.02-.02,3.8-.7,5.02-1.66,1.22-.98,1.82-2.15,1.83-3.34v-.03c-.02-1.19-.62-2.32-1.82-3.26-1.2-.93-2.97-1.56-4.96-1.56-.02,0-.07,0-.13,0-2.02,.02-3.81,.69-5.02,1.66-.61,.49-1.06,1.02-1.37,1.58-.84,1.27-2.73,1.61-4.32,.97-4.2-.7-13.67-4.05-18.79-8.5-4.48-4.7-5.15-10.63-5.15-12.31s.33-2.24,.9-.9c.12,.34,.25,.7,.39,1.06,.38-5.22,3.7-11.08,4.34-12.42,1.03-2.2,1.68-4.53,1.29-6.86-.31-1.33,2.07-2.33,3.62-.78,.67,.58,2.69,3.37,1.89,6.99,2.61,7.46,7.06,14.1,16.21,10.6,3.1-.78,4.07,1.75,.39,4.17-1.62,.88-4.99,2.45-8.9,2.27-1.51,1.67-3.85,4.49-6.8,8.71,4.63,2.18,8.79,3.91,12.21,4.07,.48-.64,1.04-1.21,1.67-1.71,.12-.09,.24-.17,.36-.26,.24-.17,.48-.33,.74-.49h0c.25-.16,.51-.3,.77-.43,.01,0,.03-.01,.04-.02,.25-.13,.51-.24,.77-.35,.03-.01,.07-.03,.11-.04,.25-.1,.5-.19,.76-.28,.06-.02,.13-.04,.19-.06,.23-.07,.47-.14,.71-.2,.1-.02,.2-.04,.31-.07,.21-.05,.42-.09,.63-.13,.16-.03,.33-.04,.49-.06,.16-.02,.32-.05,.49-.06,.33-.03,.67-.05,1.01-.05,.04,0,.11,0,.19,0,.47,0,.94,.03,1.4,.08,.11,.01,.23,.02,.34,.04,.45,.06,.9,.13,1.33,.24,.32,.08,.64,.17,.95,.27,4.87-2.95,10.01-3.6,13.58-3.6,2.05,0,3.34,.22,3.39,.23,5.65,.63,12.87,5.02,14.13,7.83,.38,.86,.18,1.44-.06,1.78l-.18,.16-.23,.03c-.36,0-.75-.32-1.6-1.02-2.01-1.66-6.21-5.11-12.35-5.11h-.14c-4.05-.43-7.84,.61-11.56,3.12,1,1.31,1.64,2.88,1.65,4.61v.06c0,2.58-1.35,4.84-3.29,6.38-1.95,1.55-4.55,2.46-7.39,2.5h-.17c-1.46,0-2.86-.24-4.13-.68,0,0-.02,0-.03,0-.43-.15-.84-.32-1.24-.51h0c-.69-.32-1.34-.72-1.93-1.17-.23-.18-.43-.37-.62-.56-2.47-.74-6.86-1.88-9.04-2.44-1.91-.49-2.36-.68-1.62,.29,1.22,1.33,4.96,3.8,7.27,5.27,1.32-.54,2.78-.82,4.26-.82,.6,0,1.21,.05,1.82,.14,.14,.02,.28,.05,.42,.07,.53,.1,1.07,.22,1.61,.38h0c.75,.21,1.51,.5,2.25,.86,1.46,.72,2.75,1.66,3.81,2.73h36.12c.33-1.1,.4-2.19,.14-3.2,0,0-.01-.76,.95-.12,.75,.51,1.57,1.63,1.73,3.32h13.25c.87-2.67,1.99-5.27,3.43-7.93-10.1-5.71-16.95-13.47-21.11-21.57-8.4-2.48-9.8-7.14-11.08-9.79-.77-2.28,.68-2.72,1.36-1.21,2.5,4.18,5.51,5.31,7.35,5.58-.77-2.08-1.38-4.16-1.82-6.21,0,0-.78-3.49,.78-1.16,4.11,8.82,8.74,16.42,16.27,22.76,.05,.05,.11,.09,.16,.14,.6,.5,1.21,.99,1.84,1.47,.12,.09,.24,.19,.37,.28,.58,.44,1.18,.86,1.8,1.28,.17,.11,.32,.23,.49,.34,.77,.51,1.56,1.02,2.38,1.51,.91,.55,1.8,1.06,2.68,1.55,.09,.05,.18,.1,.27,.15,.84,.46,1.66,.9,2.47,1.31h.01c21.22,10.84,33.12,5.2,32.32,1.19,0-.76-.18-1.49-.43-2.15-.6-.06-1.21-.13-1.83-.22,.51,4.76-10.43,5.38-20.59,1.35-2.73-1.21-5.33-2.56-7.83-4.25-1-.68-1.98-1.41-2.95-2.22-.05-.04-.09-.08-.13-.11-.22-.18-.44-.37-.66-.56-.03-.03-.06-.06-.09-.08-.67-.59-1.32-1.21-1.97-1.88-.08-.08-.16-.16-.24-.25-.18-.19-.36-.38-.54-.58-.09-.1-.18-.2-.27-.3-.58-.63-1.15-1.3-1.71-2-.11-.14-.23-.28-.34-.43-.15-.19-.3-.39-.45-.59-.12-.16-.25-.33-.37-.5-.14-.19-.29-.39-.43-.59-.16-.22-.33-.46-.49-.69-.19-.28-.39-.57-.58-.86-.16-.23-.31-.47-.47-.71-.13-.19-.25-.39-.38-.59-.15-.24-.3-.48-.45-.72-.12-.2-.24-.39-.36-.59-.18-.31-.36-.62-.55-.93-.1-.18-.2-.35-.31-.54-.23-.41-.47-.84-.7-1.27-.11-.19-.2-.38-.31-.57-.17-.32-.34-.65-.51-.98-.1-.2-.2-.4-.31-.6-.19-.38-.38-.77-.57-1.17-.07-.15-.15-.3-.22-.46-.26-.54-.52-1.1-.78-1.67-.07-.16-.15-.33-.22-.5-.2-.43-.39-.87-.58-1.31-.09-.21-.18-.42-.27-.62-.2-.45-.39-.91-.58-1.38-.08-.18-.15-.36-.22-.54-.26-.64-.52-1.3-.79-1.97-.04-.12-.09-.24-.14-.35-.22-.57-.44-1.15-.66-1.74-.08-.22-.17-.44-.24-.66-.19-.52-.39-1.05-.58-1.59-.08-.22-.16-.44-.24-.66-.26-.75-.53-1.51-.79-2.29-1.5,.41-3.97,.47-5.38-1.48-1.72-1.77,.52-3.05,1.48-2.24,1.51,1.26,2.65,.46,3.81-.07,.12-.05,.23-.11,.33-.17,1.87-1.1,1.32-3.19,1.95-4,.73-.94,1.2,1.67,1.2,1.67,.38,1.61-.07,3.07-.75,4.16-.06,.1-.12,.2-.19,.29,.14,.3,.3,.63,.46,.97,.04,.08,.08,.16,.12,.25,.36,.75,.77,1.59,1.25,2.51,.03,.06,.06,.11,.09,.17,.5,.96,1.07,1.99,1.72,3.09,0,.01,.01,.02,.02,.03,5.68,9.56,17.33,23.47,41.69,28.56,18.65,3.01,20.91-8.5,15.81-12.03Zm-30.26-13.29c-2.09,.37-4.98,.28-7.83-2.74-1.81,2.32-4.71,2.86-7.85,2.86-5.38,0-9.75-5.03-9.75-11.23,0-4.73,2.01-8.41,5.35-9.9-2.46-1.76-5.43-2.5-9.25-1.57-1.81,.42-2.29-.57-1.51-1.27,3.85-3.53,11.73-4.21,17.02,1.75,6.77,7.63,5.98,16.21,11.11,19.3,1.91,1.16,4.07,1.49,4.07,1.49,.84,.23,.42,1.03-1.36,1.32Zm.93-6.19c-1.48-.18-3.26-.92-5.35-7.43-2.82-11.65-6.85-16.31-12.52-16.47-.99-.04-1.27-.94-.85-1.35,2.07-2.03,8.31-1.6,11.29,4.33,3.81,7.59,3.05,14.5,5.9,18.08,1.06,1.34,2.26,2.06,2.26,2.06,.46,.36,.24,.93-.73,.78Zm18.06,25.79c-.53,.89-7.71-1-7.29-4.07,1.4-3.04,8.27,3.12,7.29,4.07Z"/><path class="cls-2" d="M211.56,23.65c2.07,1.29,5.66,1.69,6.72,1.01,1.24-.81-.79-3.59-1.38-4.17-.01-.01-.03-.02-.04-.03-2.52-1.23-5.44-2.27-8.82-2.92-1.46,1.36,.94,4.51,3.51,6.12Z"/><path class="cls-2" d="M198.99,19.43c1.77,.97,3.88,.43,5.41-1.04,.42-.4,.68-.85,.8-1.29-.95-.11-1.94-.19-2.95-.23-1.85-.17-3.64-.26-5.38-.28,.25,.91,.86,2.15,2.12,2.84Z"/><path class="cls-2" d="M178.69,20.17c2,1.31,4.12,1.13,9.29-1.73,.39-.21,1.29-.85,2.06-1.57-4.35,.42-8.33,1.28-11.98,2.48,.08,.3,.27,.58,.64,.82Z"/><path class="cls-2" d="M167.16,59.84c2.45,3.86,5.33,4.93,7.11,5.19-.77-2.08-1.38-4.16-1.82-6.21,0,0-.17-.76-.19-1.34-1.95,1.74,3.77,8.57-5.1,2.35Z"/><path class="cls-2" d="M125.04,72.92c-.05-.66-.69-1.08-1.57-1.14-1.42,1.69-3.26,4.03-5.43,7.14,1.32,.62,2.6,1.2,3.84,1.72,1.92-.92,3.5-3.26,3.15-7.72Z"/><path class="cls-2" d="M128.85,61.57c-5.32,1.02-9.62-6.3-11.53-10.28,.02,.6-.03,1.23-.18,1.88,2.61,7.46,7.06,14.1,16.21,10.6,1.54-.38,2.56,.04,2.73,.87,.66-2.18-.98-4.27-7.24-3.07Z"/><path class="cls-2" d="M104.72,65.75c.04-1.42,.37-1.83,.89-.58,.12,.34,.25,.7,.39,1.06,.38-5.22,3.7-11.08,4.34-12.42,.99-2.1,1.61-4.31,1.33-6.53-.22,4.21-5.46,8.1-6.4,12.8-.46,2.32-.56,4.27-.54,5.68Z"/><path class="cls-2" d="M136.55,90.02c-1.62-.55-2.39-2.2-5.46-1.23-.73,.23-13.05-2.12-15.75-1.8,3.54,.14,12.58,2.32,15.6,3.4,.61-.42,1.71-.63,3.39,.57,1.2,.93,2.97,1.56,4.96,1.56h.13c2.02-.02,3.8-.7,5.02-1.66,1.22-.98,1.82-2.15,1.83-3.34v-.03c0-.5-.12-.99-.34-1.46,.18,3.08-3.66,5.92-9.38,3.99Z"/><path class="cls-2" d="M128.37,105.96c-.59-.96,.19-2.62-.97-3.88-.22-.29-1.2-1.13-3.07-1.39-6.39-5.61-9.71-7.6-11.29-8.31,2.67,1.68,7.93,6.52,11.32,9.98,.95-.03,1.98,.6,2.13,1.91-.03,2.26,1.77,5.15,5,6.72,1.47,.72,2.99,1.06,4.39,1.06,2.56,0,4.49-1.08,5.29-2.71h0c.3-.6,.44-1.23,.44-1.91,0-.14-.02-.29-.04-.43-3.38,6.67-11.59,1.58-13.19-1.04Z"/><path class="cls-2" d="M124.57,120.98c0-1.44-.37-3.03-1.17-4.56-1.41-2.72-3.78-4.4-5.86-4.77-1.85-.35-2.7-2.43-2.03-3.43-2.12-4.32-4.55-11.55-4.57-14.8-.71,3.19,3.23,14.5,3.23,14.5,0,2.71,.13,4.72,3.62,5.5,3,.66,5.05,5.04,4.85,8.54-.17,3.12-2.89,4.69-6.33,3.31,1.22,.84,2.53,1.28,3.67,1.27,.72,0,1.38-.16,1.99-.47h0c1.57-.81,2.58-2.65,2.59-5.09Z"/><path class="cls-2" d="M96.93,131.56c.7,.28,1.4,.39,2.12,.32,1.84-.18,3.53-1.58,4.5-3.97,.56-1.4,.82-3.11,.64-4.92-.31-3.22-1.96-5.79-3.84-6.98-1.64-1.05-1.68-3.39-.67-4.13-.23-4.35,.76-12.26,2.31-15.88-1.59,2.08-3.18,6.69-3.52,15.04-1.62,3.68,.6,5.62,.9,5.98,3.42,4.2,3.3,9.1,1.88,11.09-1.5,2.1-4.29,3.25-7.48,.6,.87,1.39,2.01,2.4,3.17,2.85Z"/><path class="cls-2" d="M84.57,106.22c1.89-5.2,7.04-13.83,9.56-14.13-.04-.02-.08-.05-.13-.07-3.62,1.03-9.89,11.25-10.8,13.13,0,0-2.46,2.59-1.42,4.14,1.03,1.55,1.78,8.97-4.66,11.25-2.77,.98-4-.72-5.15-2.76,.38,1.91,1.4,3.31,2.78,3.92,.61,.27,1.24,.38,1.92,.35,2.26-.06,5.07-1.99,6.5-5.29,1.26-3.06,.87-4.43,.87-4.43,0,0-.06-1.23-.81-3.09-.28-.69-.18-1.69,.28-2.34,.26-.37,.65-.6,1.07-.68Z"/><path class="cls-2" d="M281.35,116.72c-.73,.63-1.34,1.55-1.78,2.72-.48,1.3-.68,2.88-.49,4.55,.37,3.42,2.31,6.03,4.27,6.79,.63,.25,1.25,.34,1.89,.27h0c1.63-.18,3.11-1.5,3.93-3.72,.08-.2,.13-.43,.19-.64-3.55,4.64-7.29,1.46-8.22-1.97-.99-3.67,1.07-6.52,1.7-7.62,1.5-2.62-.05-4.85-.05-4.85-.18-.7-1.1-14.07-2.42-16.18,.93,2.11,1.29,11.42,1.63,17.07,.59,.78,.53,2.35-.64,3.57Z"/><path class="cls-2" d="M297.04,112.11c-1.12,1.86-1,5.22,.96,8.22,.88,1.38,2.01,2.46,3.17,3.19,2.16,1.34,4.3,1.47,5.76,.54,.53-.34,.95-.79,1.28-1.35,.06-.1,.1-.21,.15-.31-3.79,3.05-7.59-.68-9.27-4.12-2.04-4.17-.81-4.87-.59-5.76,.51-2.03-.51-3.56-1.9-4-1.14-.36-6.42-11-8.73-12.59,2.17,2.59,5.85,9.11,8.23,13.45,.86,.45,1.45,1.54,.94,2.75Z"/><path class="cls-2" d="M229.24,35.88c-.88-.48-2.03-1.57-2.62,2.01-.01,2.17,1.03,2.78,3.06,3.5,1.86,.69,2.09-1.71,2.09-1.71-.02-1.45-2.54-3.8-2.54-3.8Z"/><path class="cls-2" d="M230.68,47.33c.84,0,2.05,.69,1.18,3.18-.04,.12-.41,.37-.78,.13-1.1-.71-1.79-1.47-1.37-2.7,.13-.36,.48-.61,.97-.61Z"/><path class="cls-2" d="M226.8,43.25c.83-.04,2.08,.73,1.35,3.71-.04,.15-.39,.45-.77,.19-1.14-.8-1.87-1.66-1.51-3.13,.1-.43,.44-.74,.93-.76Z"/><path class="cls-2" d="M228.49,52.55c-.32-.46-.09-.91,.45-1.07,.67-.2,1.39-.04,1.76,.51,.3,.45,.26,.99,.17,1.28-.31,.67-1.74,.21-2.38-.73Z"/><path class="cls-2" d="M231.78,45.43c-.02,.56-.46,.78-.99,.6-.66-.23-1.14-.78-1.12-1.45,.02-.54,.37-.95,.62-1.14,.65-.36,1.53,.86,1.49,1.99Z"/><path class="cls-2" d="M216.07,28.57c-3.34,.37-1.26,5.05,1.5,7.65,1.96,1.84,5.74,3.04,7.03,2.53,1.51-.6-.08-4.04-.6-4.79-3.19-4.65-5.14-5.69-7.93-5.39Z"/><path class="cls-2" d="M222.61,24.02c-.12-.04-.24-.08-.36-.12,0,0-1.97,1.07-1.73,2.05,.59,2.41,2.1,5.33,5.04,5.69,1.26,.15,2.19-.79,2.58-1.97-1.07-1.49-2.87-3.58-5.52-5.65Z"/><polygon class="cls-2" points="322.91 105.88 322.92 105.89 322.92 105.89 322.91 105.88"/><path class="cls-2" d="M302.91,98.97c.23-2.42,3.66-2.22,3.86,.29-.13,2.25,1.55,5.22,4.7,6.93,1.44,.78,2.95,1.19,4.34,1.25,2.56,.1,4.53-.89,5.4-2.48,.32-.59,.49-1.21,.52-1.88,.02-.35-.01-.71-.08-1.08-.08,2.26-2.11,4.1-5.48,3.88-4.97-.32-7.37-3.88-7.86-5.34-.47-1.4-.41-3.18-2.12-3.88-1.84-.75-3.41,.29-3.41,.29,0,0-1.07-.48-3.4-1.75-1.87-1.01-4.93-2.15-6.26-2.16,1.94,.68,6.33,3.49,9.79,5.93Z"/><path class="cls-2" d="M271.96,94.69c-4.26,.78-13.32,10.69-14.2,11.17-.86,.47-1.55,1.12-2.32,3.64-1.3,4.21-9.14,6.25-11.58,1.78,.04,.3,.12,.59,.23,.86,0,0,0,.02,0,.03,.46,1.09,1.44,1.91,2.92,2.33,1.46,.41,3.34,.32,5.18-.43,.02-.01,.06-.03,.12-.05,1.85-.79,3.26-2.08,4.01-3.44,.38-.68,.6-1.35,.66-1.99,.17-.83,.66-1.42,1.22-1.71,2.12-3.48,10.15-10.82,13.75-12.19Z"/><path class="cls-2" d="M272.36,110.85c1.24-4.89,4.35-12.51,6.48-14.64-2.82,2.18-7.29,13.98-7.29,13.98,0,0-1.28,1.37-1.38,1.97-.1,.6,.15,2.2,.47,3.14,1.07,3.16-4.43,12.55-9.36,7.08,.17,.75,.44,1.42,.8,1.94,.38,.56,.84,.99,1.39,1.29,1.43,.77,3.29,.52,5.08-.85,1.05-.81,2.02-1.99,2.71-3.47,1.24-2.63,1.22-5.41,.39-7.24-.55-1.24-.06-2.6,.68-3.2Z"/><path class="cls-2" d="M192.1,93.9c.61,.41-1.14,3.63-2.55,6.05h4.78c.87-2.67,1.98-5.27,3.42-7.93-10.1-5.71-16.95-13.47-21.11-21.57-7.45-2.2-9.39-6.11-10.63-8.82,1.3,4.08,5.07,8.22,9.79,10.02,2.17,4.35,7.89,16.04,16.3,22.25Z"/><path class="cls-2" d="M174.38,85.8v.02l-.24,.03c-.36,0-.75-.32-1.6-1.02-2.01-1.66-6.21-5.11-12.35-5.11h-.14c-4.05-.43-7.84,.61-11.56,3.12h0c.34,.45,.64,.93,.88,1.43,.04,.08,.08,.15,.11,.23,.06,.13,.12,.27,.17,.41,.06,.17,.12,.34,.17,.51,.04,.11,.07,.23,.09,.34,.05,.2,.09,.41,.13,.62,.01,.08,.02,.16,.03,.24,.03,.27,.06,.55,.06,.83v.06c0,.31-.02,.62-.06,.93-.02,.13-.05,.26-.08,.4-.03,.17-.05,.33-.1,.5-.05,.18-.11,.35-.16,.52-.04,.11-.07,.22-.11,.33-.08,.2-.17,.4-.27,.6-.03,.07-.06,.14-.09,.2-.11,.22-.24,.43-.37,.64-.02,.04-.04,.07-.07,.11-.15,.23-.31,.44-.48,.66-.01,.02-.02,.03-.04,.05-.18,.22-.37,.44-.57,.64h-.01c-.21,.22-.42,.42-.64,.61h0c-.08,.07-.15,.15-.24,.21-1.95,1.55-4.55,2.46-7.39,2.5h-.17c-2.81,0-5.37-.86-7.33-2.37-.23-.18-.43-.37-.62-.56-2.47-.74-6.86-1.88-9.04-2.44-1.91-.49-2.36-.68-1.62,.29,1.22,1.33,4.96,3.8,7.27,5.27,1.32-.54,2.78-.82,4.26-.82,2,0,4.1,.48,6.1,1.45,1.47,.73,2.76,1.66,3.83,2.75h1.19v-.02h34.91c.33-1.1,.4-2.19,.14-3.2,0,0-.01-.76,.95-.12,.02,.01,.04,.03,.06,.05-.27-3.61-1.63-7.31-5.02-10.88Z"/><path class="cls-2" d="M273.54,79.97c-1.99-3.41-10.32-9.27-21.95-9.51,.67,1.17,1.14,2.49,1.23,3.99,11.59-.49,16.9,5.03,18.65,7.48,1.5-.78,3.21-1.39,5.18-1.73,1.26-.25,2.17-.14,2.58,.14-.46-.78-3.32-.98-5.69-.36Z"/><path class="cls-2" d="M51.68,213.53c1.65,.92,3.52-.2,4.44-1.85,1.85-3.3-1.65-6.04-4.59-8.53,0,0-3.12,.29-2.94,1.53,.52,3.62-.09,7.07,3.09,8.85Z"/><path class="cls-2" d="M56.67,193.73c2.43-1.88,1.93-3.25,1.25-3.74-.4-.29-.85-.26-1.21,.02-1.2,.93-1.17,2.06-.77,3.39,.13,.45,.6,.43,.72,.33Z"/><path class="cls-2" d="M56.67,201.27c-1.21-.92-1.93-1.36-3.3-1.1-.46,.09-.38,.53-.4,.68-.51,3.81,7,2.92,3.7,.42Z"/><path class="cls-2" d="M57.38,212.59c-.73,1.89-.37,4.68,1.47,4.4,2.07-.31,1.01-5.17-.11-5.26-.66-.06-1.15,.3-1.37,.85Z"/><path class="cls-2" d="M57.51,218.83c-.94-.33-2.26-1.21-2.25,2.42,.35,2.14,1.48,2.57,3.61,2.94,1.94,.37,1.78-2.04,1.78-2.04-.26-1.43-3.13-3.32-3.13-3.32Z"/><path class="cls-2" d="M49.19,192.39c-.69,1.89,.16,3.91,1.84,5.2,1.33,1.02,2.81,.8,3.39-.78,.98-2.67,.16-6.13-1.41-6.93-.84,.28-1.69,.53-2.55,.75-.51,.43-.99,1-1.26,1.76Z"/><path class="cls-2" d="M87.51,201.12c0,6.68,3.35,15.52,14.26,18.88,3.79,.75,6.92,.73,9.45,.29,.94-.16,1.37-.6,1.33-1-11.07,1.52-28.69-6.12-23.6-26.1-.92,2.33-1.44,4.97-1.44,7.93Z"/><path class="cls-2" d="M113.75,191.83c-7.22,.4-10.82,3.35-12.63,7.31,1.91-2.89,5.62-4.78,12.22-4.63,9.05,.22,15.52,9.44,9.96,21.6-1.09,2.38-3.2,4.6-6.04,6.28,17.33-7.63,12.23-30.31-3.51-30.57Z"/><path class="cls-2" d="M41.22,191.8c-4.17,0-8.29-.65-12.15-2.03-.14,1.24-.19,2.5-.07,3.72,4.33,47.29,65.77,61.23,95.72,44.1-24.79,10.9-50.9,2.96-66.96-9.8-2.74-2.18-5.08-4.48-7.07-6.87,.38,0,.77-.03,1.16-.1,1.64-.33,2.45-1.58,1.65-3.05-1.62-2.99-5.77-4.81-6.89-2.88-.02,.05-.04,.1-.05,.15-1.62-2.79-2.84-5.63-3.7-8.46,.57,.6,1.13,1.03,1.6,1.16,1.94,.55,2.97-4.03,3.03-5.16,.35-6.53-.62-9.13-3.18-10.92-1,.08-2,.14-3.01,.14h-.08Z"/><path class="cls-2" d="M200.7,34.67c6.77,7.63,5.98,16.21,11.11,19.3,.48,.3,.98,.53,1.46,.73-1.1-.6-2.37-1.71-3.66-3.89-2.97-5.03-1.98-18.86-15.67-21.67-4.05-.83-7.65,1.66-9.19,2.96,4.1-2.76,11.11-2.88,15.95,2.57Z"/><path class="cls-2" d="M210.72,81.61c-5.4-.55-9.37-2.79-12.22-5.12,4.76,4.48,13.46,11,23.68,10.74-.4-.39-.49-1.05,.7-1.03,.75,.01,1.55-.11,2.21-.38-4.19-1.32-7.95-2.77-11.32-4.33-.78,.04-1.76,.08-3.05,.11Z"/><path class="cls-1" d="M367.81,198.71l-.7,.38c-1.5,.83-3,1.64-4.49,2.44-.08,.04-.16,.08-.25,.13,.36-.91,.64-1.86,.8-2.85,.04-.24,.06-.49,.06-.74,0-.75,.08-1.76-.01-2.78-.06-1.32-.64-2.74-1.75-4.24-1.69-2.33-2.3-3.45-2.49-3.99,.1-.35,.23-.69,.41-1.03,.3-.58,.95-1.61,1.93-3.08l.48-.71-.02-2.53h-.01l.03-.05-13.97,1.76-.74,1.15c-1.75,3.65-3.84,6.91-6.19,9.7-2.25,2.65-4.73,4.9-7.38,6.69l-.37,.23c-1.62,1-3.02,1.73-4.16,2.18-2.07,.8-4.12,.84-5.88,.12,.78-1.32,1.45-2.56,2-3.72,1.23-2.58,2.02-4.91,2.36-7.01,.1-.63,.15-1.22,.15-1.79,0-.44-.04-.86-.1-1.27,.19-1.59,.06-3-.43-4.19-.55-1.34-1.59-2.31-3.1-2.9-1.44-.56-3.22-.84-5.31-.84-2.52,0-5.02,.43-7.35,1.25-4.19,.71-8.04,2.41-11.42,5.06-2.16,1.68-4.03,3.73-5.57,6.08-1.55,2.37-2.52,4.75-2.9,7.1-.06,.34-.1,.7-.13,1.12-2.77,1.73-4.3,2.66-4.81,2.91-2.34,1.17-4.07,1.42-4.92,.72-.11-.09-.2-.2-.27-.31,.12-.81,.19-1.55,.19-2.21,0-.32-.01-.64-.04-.93,0-.07-.03-.13-.04-.19,.09-.81,.11-1.52,.05-2.15,1.87-.58,3.51-1.28,4.89-2.13,2.49-1.57,3.98-3.59,4.36-6.02,.07-.45,.11-.89,.11-1.29,0-.42-.04-.82-.12-1.21,0-.03,.01-.05,.02-.08,.41-2.58-.36-4.52-2.31-5.76-1.49-.93-3.62-1.4-6.32-1.4-.09,0-.18,0-.27,0,.94-.97,1.71-1.82,2.29-2.55,2.23-2.78,3.55-5.36,3.94-7.75,.06-.4,.1-.83,.11-1.3,0-.1,0-.18,0-.27,0-.37-.02-.71-.07-1.04,0-.05-.02-.1-.03-.15,.05-.33,.08-.68,.1-1.12,.01-.46-.01-.9-.06-1.31-.21-1.52-.75-2.59-1.63-3.19-.86-.59-1.95-.89-3.26-.89-1.14,0-2.31,.2-3.47,.6l-11.91,3.96-.07,.08c-5.01,6.01-8.88,11.61-11.51,16.65-2.97,5.64-4.96,11.52-5.92,17.47-.02,.14-.04,.27-.06,.41v.09c-1.18,.66-2.26,1.24-3.21,1.72-3.18,1.56-6.06,2.35-8.57,2.35-.8,0-1.8-.06-2.96-.19-1.09-.12-2.04-.6-2.9-1.46-.85-.87-1.38-1.82-1.56-2.83-.03-.12-.04-.25-.05-.38,.03-.21,.05-.42,.08-.64,.24-1.49,.72-2.98,1.45-4.45,.72-1.46,1.62-2.72,2.7-3.78,1.35-1.3,2.62-1.9,3.84-1.9,.65,.02,.93,.19,1.11,.54-.08,.33-.18,.68-.31,1.07-.23,.69-.68,1.84-1.33,3.42l-.32,.75h.02s0,0,0,.01v2.57l12.37-3.66,.27-1.68c.09-.56,.13-1.09,.13-1.6,0-.8,.03-1.65-.01-2.47,.03-2.17-.74-3.92-2.32-5.2-1.57-1.27-3.74-1.91-6.46-1.91-3.15,0-6.4,.8-9.65,2.39-3.25,1.58-6.1,3.72-8.48,6.37-2.84,3.23-4.57,6.69-5.15,10.26-.05,.31-.09,.61-.11,.9-2.23,1.39-4.57,2.84-4.75,2.94-2.56,1.31-5.03,1.97-7.35,1.97-1.5,0-2.8-.49-3.98-1.49-.46-.39-.85-.84-1.2-1.33,1.72-.46,3.13-.87,4.2-1.23,1.88-.65,3.8-1.45,5.76-2.41,1.96-.97,3.58-2.01,4.85-3.13,1.75-1.57,2.8-3.21,3.08-4.92,.05-.31,.07-.62,.07-.93,0-.37,.05-1.4,0-2.4,.03-.84-.13-1.69-.48-2.55-.78-1.67-1.92-2.89-3.41-3.64-1.46-.73-3.21-1.09-5.19-1.09-.61,0-1.44,.06-2.56,.2-3.05,.52-6.1,1.73-9.07,3.6-2.97,1.88-5.44,4.17-7.35,6.82-1.08,1.55-1.95,3.05-2.59,4.47-.65,1.43-1.11,2.95-1.36,4.5-.03,.17-.05,.34-.06,.51h0c-2.42,1.39-5.04,2.6-7.77,3.65,.28-.78,.53-1.49,.74-2.12,.51-1.5,1.19-3.58,2.06-6.23,.87-2.65,1.66-4.94,2.38-6.88,.73-1.94,1.51-3.91,2.35-5.88l.33-.77v-2.57h0v-.02l-.04,.02-11.14,3.41c-1.47-1.8-3.61-2.72-6.38-2.72-3.92,0-8.28,1.45-12.94,4.32-4.67,2.87-8.02,6.33-9.95,10.27-.79,1.57-1.33,3.19-1.59,4.81-.2,1.23-.24,2.41-.12,3.53-.04,.44-.07,.88-.07,1.31,0,1.61,.31,3.11,.93,4.48,.9,2.01,2.44,3.46,4.56,4.32,.29,.11,.58,.21,.87,.3-.83,.5-1.61,1.04-2.34,1.64-2.17,1.85-3.46,3.93-3.83,6.18-.08,.55-.1,1.17-.03,1.93,.02,.16,.05,.31,.07,.46-.01,.06-.03,.12-.04,.19-.05,.31-.07,.65-.07,1.02,0,.28,.01,.59,.04,.9,.22,2.01,1.12,3.56,2.67,4.51,1.51,.94,3.33,1.4,5.44,1.4,1.08,0,2.09-.1,3.03-.3,4.25-.84,8.07-3,11.42-6.43,2.75-2.82,5.26-6.58,7.54-11.27,2.38-.82,4.55-1.75,6.52-2.8,1.7-.91,3.61-2.05,5.69-3.4,.37,1.24,.97,2.38,1.83,3.36,1.31,1.57,2.87,2.69,4.66,3.32,1.77,.63,3.85,.93,6.23,.94,3.57,0,6.96-.71,10.17-2.14,1.3-.59,2.97-1.59,5.02-3.01,1.5-1.03,2.64-1.82,3.45-2.37,.31,1.18,.79,2.3,1.47,3.32,1.67,2.53,4.34,4,7.87,4.39,.35,0,.86,.06,1.53,.18h1.39c4.25,0,8.61-1.36,13.07-4.07,.69-.41,2.41-1.55,5.15-3.4-.02,.61-.02,1.23-.01,1.84-.02,.59-.03,1.17-.03,1.76,0,1.13,.03,2.27,.1,3.41l.02,.44,11.74-2.04,.04-.27c.55-3.38,1.14-6.62,1.79-9.71,.64-3.05,1.35-5.8,2.15-8.25,.14-.12,.27-.23,.4-.35-.03,.12-.07,.23-.09,.35-.01,.1-.03,.27,.02,.99,0,.62,.02,1.59,.04,3.17,.08,.9,.26,1.56,.82,1.89,.48,.25,1.18,.33,2.21,.33,.04,0,.08,0,.11,.01-.04,.13-.08,.26-.11,.35-.31,.97-.49,1.66-.56,2.07-.18,1.09-.18,2.07-.05,2.98-.06,.48-.11,.95-.11,1.39,0,2.54,1.06,4.54,3.14,5.79,1.2,.68,2.57,1.01,4.1,1.01,2.56,0,5.58-.99,9.08-2.93,1.53-.84,3.99-2.43,7.41-4.76,.31,.94,.75,1.85,1.33,2.72,1.13,1.71,2.52,2.97,4.15,3.74,1.61,.76,3.48,1.14,5.58,1.14h.01c5.67,0,10.81-2.29,15.34-6.8,1.74,.96,3.6,1.44,5.56,1.43,2.34,0,5.32-.56,7.84-1.95l.05,.07-.68,1.49,1.07,1.74c.93,1.47,2.25,2.55,3.9,3.18,1.63,.63,3.56,.94,5.77,.94,3.92,0,8.53-1,13.85-2.99,4.46-1.67,8.2-3.54,11.23-5.61l.14-.09,.03-.16,.81-5v-2.54h0v-.04Zm-26.36,1.34c1.83-1.64,3.64-3.39,5.42-5.25,.47,.77,1.5,2.28,3.13,4.65,.73,1.11,1.26,2.08,1.6,2.89-.35,.83-1.01,1.6-1.96,2.28-1.3,.94-2.6,1.41-3.88,1.41-.79,0-1.45-.22-2.01-.68-.57-.46-1.08-1.34-1.55-2.66-.02-.04-.14-.36-.75-2.65Zm-35.8-.56c.74-3.1,2.15-5.87,4.21-8.29,1-1.16,2.06-2.02,3.21-2.61-.73,1.3-1.24,2.7-1.48,4.17-.18,1.08-.19,2.15-.08,3.19-.05,.45-.08,.9-.08,1.34,0,1.99,.51,3.91,1.51,5.75-.35,.27-.7,.53-1.06,.77-.81,.55-1.47,.9-1.98,1.05-.51,.15-1.06,.22-1.66,.22-1.48,0-2.38-.9-2.76-2.75-.05-.24-.07-.52-.1-.8,.05-.63,.14-1.31,.25-2.05Zm-32.34-21.36c1.27-1.94,2.46-3.46,3.57-4.59,.8-.74,1.6-1.4,2.38-1.96,.59-.43,1.11-.74,1.53-.95-.87,1.57-2.1,3.21-3.71,4.88-.96,.99-2.65,2.56-5,4.66,.43-.76,.84-1.44,1.23-2.03Zm-70.67,13.66c1.28-1.93,2.77-3.06,4.49-3.49,.47-.12,.79-.18,.9-.18h0c.48,.03,.78,.12,.95,.35-.02,.08-.05,.16-.07,.22-.49,1.68-1.69,3.05-3.59,4.09-.94,.54-2.34,1.09-4.12,1.63,.38-.89,.85-1.77,1.43-2.62Zm-31.98-1.7c-.49,1.74-1.14,3.9-1.95,6.4-1.13,1.67-2.4,3.09-3.76,4.23-1.34,1.12-2.75,1.69-4.17,1.69-1.02,0-1.65-.29-1.93-.89-.06-.12-.1-.27-.14-.41,.21-1.17,.59-2.38,1.17-3.62,1.04-2.2,2.49-4.24,4.36-6.13,2.2-2.2,4.15-3.24,5.8-3.24h.01c.44,0,.78,.11,1.06,.32-.13,.5-.27,1.03-.44,1.64Zm-19.24,33.17c.5-.79,1.42-1.61,2.81-2.44,1.54-.93,3.52-1.79,5.92-2.6-.37,.65-.74,1.27-1.1,1.82-.97,1.48-1.94,2.53-2.86,3.1-.93,.57-1.89,.85-2.93,.85-.87,0-1.46-.25-1.83-.73Zm118.7-31.74c1.92-1.19,3.62-1.76,5.1-1.76,.81,0,1.59,.18,2.35,.53-.48,.51-1.19,.99-2.13,1.42-1.59,.74-3.5,1.11-5.65,1.11-.67,0-1.24,.05-1.71,.14,.77-.6,1.46-1.08,2.04-1.44Z"/><path class="cls-7" d="M337.15,180.5h3.7l.34-.53c1.3-2.03,3.44-3.38,5.84-3.68l8.67-1.09,5.58-26.39,24.46-38.69h-19.48l-9.01,15.41-2.25-15.41h-19.89l8.74,38.69-6.71,31.69Z"/><path class="cls-7" d="M169.22,174.92c.26,0,.53-.03,.79-.03,2.92,0,5.6,.65,7.92,1.89l6.57-2.01c3.03-.93,6.32-.01,8.44,2.34,.75,.84,1.3,1.81,1.65,2.84,.03-.02,.06-.04,.1-.06,2.9-1.83,5.88-3.17,8.91-4.01l6.98-17.36h-20.3l.91-4.31h16.85l7.61-18.08h-20.63l.85-4.01h17.67l9.34-23.61h-15.78l-.84,1.73h-23.34l-8.44,21.27h3.94l-9.19,43.43Z"/><path class="cls-7" d="M331.29,110.12h-10.09c-1.64,.88-3.58,1.28-5.52,1.19-.01,0-.03,0-.04,0-1.63-.07-3.3-.48-4.92-1.19h-2.26c.7,.71,1.34,1.5,1.91,2.38,2.6,4.05,3.08,8.79,1.11,12.26-.59,1.02-1.42,1.92-2.45,2.57h0c-2.94,1.85-6.65,1.35-9.68-.55-.01,0-.02-.01-.04-.02-1.09-.69-2.11-1.58-3.04-2.62l-2.51,4.98,3.95,.02-11.43,26.8c1.67,.35,3.2,.99,4.58,1.93,1.92,1.32,4.31,3.86,4.94,8.56,.11,.83,.15,1.69,.13,2.56-.03,.91-.11,1.67-.22,2.37-.37,2.27-1.19,4.55-2.49,6.87,.44,.32,.84,.66,1.23,1.01l3.77-8.39h15.95l-.21,4.13c1.56-.25,3.13-.37,4.72-.37,3.05,0,5.78,.46,8.12,1.36,2.25,.88,4.12,2.21,5.53,3.94l-1.04-69.78Zm-25.54,42.23l8.79-20.96v20.96h-8.79Z"/><path class="cls-7" d="M293.21,111.29c-.15-.39-.3-.78-.46-1.17h-4.2c.17,1.41,.35,2.76,.51,3.84,1.56,1.32,2.76,3.18,3.49,5.35l.45-1.24c-.62-2.36-.56-4.73,.22-6.78Z"/><path class="cls-7" d="M140.52,110.22l-.02,.05s.02-.03,.04-.05h-.02Z"/><path class="cls-7" d="M163.04,110.22h-18.05c-.1,.28-.21,.56-.35,.83h0c-1.25,2.51-3.62,4.04-6.28,4.61l-6.1,15.32h10.36l-9.58,45.6c1.97,1.11,3.78,2.43,5.38,3.93h11.22l10.42-49.22h10.36l9.24-22.79h-15.93l-.68,1.73Z"/><path class="cls-7" d="M123.77,129.52h0c-1.19,.62-2.48,.9-3.76,.9h-.01c-4.09-.03-8.01-2.73-10.23-6.93-1.09-2.07-1.62-4.26-1.62-6.36,0-1.55,.3-3.08,.91-4.45-.26-.81-.54-1.68-.83-2.56h-4.62c-.02,1.18-.02,2.3-.02,3.22,2.54,2.1,4.23,5.43,4.63,9.23,.25,2.45-.09,4.81-.9,6.86-1.35,3.43-4.17,6.15-7.87,6.52h0c-1.39,.14-2.76-.09-4.01-.59h-.01c-1.59-.66-2.97-1.73-4.1-3.09l-20.58,48.23h18.08l4.34-9.66h15.94l-.1,2.01c6.58-1.05,12.78-.57,18.18,1.16l-.7-46.82c-.71,.94-1.61,1.74-2.72,2.32Zm-14.28,22.83h-8.79l8.79-20.96v20.96Z"/><path class="cls-7" d="M45.69,155.12h9.26c-1.17,1.51-2.51,2.71-4.02,3.6-1.51,.89-3.14,1.33-4.88,1.33-3.53,0-6.24-1.2-8.13-3.59-2.07-2.6-2.62-6.17-1.64-10.69,.81-3.76,2.54-7.05,5.16-9.86,2.92-3.15,6.24-4.72,9.94-4.72,1.96,0,4.09,.65,6.39,1.95,.69,.41,1.6,1.03,2.71,1.85l10.82-10.93c-2.11-1.75-3.25-4.47-3.37-7.31v-.04c-.06-1.48,.02-3.19,.42-4.8l-2.25-1.68-1.36,1.24c-2.23-1.85-5.23-2.78-8.99-2.78-7.06,0-14.29,3.21-21.68,9.65-8.21,7.11-13.44,15.87-15.69,26.26-2.31,10.67-1.18,19.56,3.39,26.68,4.45,6.91,10.96,10.36,19.54,10.36s16.08-3.86,23.53-11.58c7.44-7.72,12.42-17.36,14.92-28.91l.65-4.2h-26.91l-7.81,18.19Z"/><path class="cls-7" d="M285.65,134.81h0c-1.23,.14-2.45-.04-3.56-.5,0,0,0,0,0,0-3.54-1.46-6.04-5.29-6.56-9.88-.26-2.26,.01-4.44,.7-6.34,.1-.27,.22-.54,.34-.8l-.37-.26-.53,1.52c-.17,1.47-.57,2.97-1.23,4.41-.26,.55-.55,1.07-.86,1.56l-5.48,15.61-.05-10.89c-1.98,.74-4.14,.75-6.09-.29h0c-1.08-.58-1.97-1.42-2.65-2.42,0,0,0,0,0,0-2.14-3.2-2.23-7.77-.34-11.85,.87-1.85,2.07-3.38,3.44-4.53h-1.95c-.13,.67-.35,1.46-.72,2.36-1.23,2.17-3.28,4-5.88,5.11-.04,.01-.1,.04-.17,.07-1.3,.53-2.62,.84-3.92,.93l-9.24,22.05,1.5-24.7c-.62-.64-1.13-1.4-1.49-2.26v-.02s-.02-.03-.03-.04c-.47-1.14-.61-2.33-.52-3.49h-14.95l-3.37,68.32c.76,.61,1.47,1.3,2.11,2.06h1.68c1.21-.78,2.44-1.52,3.76-2.16,4.32-2.1,8.71-3.17,13.05-3.17l10.1-24.47-.34,25.78c2.61-4.24,5.88-8.73,9.8-13.43,.97-1.16,2.25-2.03,3.68-2.51l11.81-3.93c.62-.21,1.27-.38,1.91-.53l7.82-21.6c-.45,.15-.91,.27-1.4,.32Z"/><path class="cls-3" d="M366.79,200.16c-1.27,.7-2.54,1.38-3.8,2.06-1.49,.8-2.8,1.4-3.88,1.79l-.41-.63c2.02-2.11,3.27-4.56,3.71-7.27,.22-1.36-.3-2.9-1.56-4.59-1.62-2.24-2.5-3.69-2.68-4.46-.18-.76-.22-1.41-.13-1.97,.11-.67,.33-1.34,.67-1.98,.27-.52,.77-1.34,1.5-2.45l-11.92,1.5-.52,.8c-1.76,3.67-3.88,6.99-6.27,9.82-2.41,2.84-5.07,5.22-7.93,7.09l-.8,.52v-.07c-1.32,.79-2.49,1.38-3.49,1.77-2.95,1.13-5.88,.87-8.13-.82l-.29-.22,.2-.3c1.38-2.13,2.52-4.12,3.36-5.9,1.2-2.52,1.97-4.81,2.29-6.8,.27-1.65,.16-3.08-.33-4.25-.47-1.15-1.34-1.96-2.66-2.47-1.35-.52-3.04-.79-5.04-.79-2.44,0-4.85,.41-7.16,1.23-4.13,.7-7.85,2.35-11.14,4.92-2.09,1.63-3.91,3.62-5.4,5.9-1.49,2.27-2.43,4.56-2.79,6.8-.06,.37-.1,.76-.13,1.24v.2l-.18,.11c-2.94,1.84-4.5,2.78-5.04,3.05-2.66,1.33-4.63,1.54-5.76,.63-.47-.4-.72-.89-.74-1.49,0-.51,.05-1.16,.17-1.94,.2-1.23,.26-2.27,.17-3.11-.09-.76-.52-1.4-1.33-1.98l-.69-.49,.83-.2c2.58-.63,4.75-1.49,6.46-2.54,2.3-1.46,3.65-3.31,4-5.48,.37-2.28-.27-3.91-1.95-4.98-1.37-.85-3.36-1.28-5.91-1.28-1.5,0-2.89,.1-4.12,.28l-1.25,.19,.93-.86c2.72-2.52,4.69-4.54,5.86-6,2.15-2.68,3.42-5.17,3.78-7.39,.06-.34,.09-.72,.11-1.2,.01-.42,0-.82-.06-1.18-.17-1.29-.61-2.18-1.3-2.65-.72-.5-1.67-.75-2.82-.75-1.06,0-2.14,.19-3.22,.55l-11.7,3.89c-4.94,5.93-8.76,11.46-11.35,16.43-2.93,5.57-4.89,11.37-5.84,17.23-.02,.13-.03,.25-.05,.37l-.07,.48-.16,.09c-1.25,.71-2.39,1.32-3.41,1.83-3.28,1.62-6.28,2.44-8.91,2.44-.84,0-1.84-.06-3.04-.19-1.26-.14-2.4-.71-3.37-1.69-.97-.98-1.56-2.07-1.77-3.23-.22-1.1-.2-2.41,.03-3.87,.26-1.58,.77-3.15,1.52-4.67,.75-1.53,1.72-2.87,2.86-3.99,1.46-1.41,2.93-2.12,4.38-2.12,1.15,0,1.64,.57,1.85,1.05,.26,.62,.32,1.39,.18,2.28-.09,.54-.25,1.17-.49,1.88-.19,.59-.54,1.51-1.05,2.73l10.34-3.06,.2-1.2c.43-2.63-.2-4.58-1.92-5.96-1.43-1.15-3.43-1.74-5.97-1.74-3.03,0-6.17,.78-9.31,2.31-3.16,1.54-5.93,3.62-8.24,6.19-2.74,3.12-4.41,6.44-4.96,9.87-.06,.36-.1,.7-.13,1.04l-.02,.19-.16,.1c-4.09,2.55-4.87,3.02-4.97,3.07-2.66,1.36-5.25,2.05-7.7,2.05-1.67,0-3.17-.56-4.48-1.67-1.29-1.1-2.2-2.57-2.7-4.36l-.11-.38,.38-.1c2.42-.63,4.33-1.17,5.69-1.62,1.83-.62,3.73-1.42,5.66-2.37,1.91-.94,3.48-1.96,4.68-3.01,1.63-1.46,2.59-2.96,2.83-4.46,.15-.94,.03-1.9-.36-2.86-.69-1.49-1.72-2.59-3.04-3.25-1.35-.67-2.98-1.01-4.85-1.01-.57,0-1.39,.06-2.45,.19-2.93,.5-5.88,1.67-8.77,3.49-2.88,1.82-5.28,4.05-7.13,6.61-1.05,1.5-1.89,2.96-2.52,4.34-.62,1.37-1.06,2.82-1.3,4.31-.03,.16-.04,.32-.06,.47l-.05,.4-.17,.1c-3.07,1.76-6.42,3.28-9.96,4.51l-.78,.27,.29-.78c.89-2.35,1.61-4.33,2.13-5.88,.51-1.51,1.2-3.58,2.06-6.23,.86-2.62,1.66-4.95,2.39-6.91,.61-1.65,1.28-3.34,2.04-5.15l-10.1,3.1-.16-.22c-1.31-1.74-3.31-2.62-5.93-2.62-3.78,0-7.99,1.41-12.53,4.2-4.54,2.8-7.79,6.14-9.67,9.95-.76,1.5-1.26,3.04-1.51,4.59-.38,2.33-.15,4.45,.68,6.3,.82,1.82,2.21,3.14,4.14,3.92,1.26,.49,2.47,.74,3.6,.74,1.81,0,3.65-.39,5.45-1.16,1.82-.78,3.64-1.88,5.41-3.26l1.11-.87-1.63,4.18-.19,.05c-1.16,.31-2.71,.77-4.74,1.38-2.05,.62-3.43,1.07-4.2,1.38-2.31,.81-4.35,1.95-6.08,3.38-2.03,1.72-3.22,3.64-3.56,5.71-.08,.48-.08,1.05-.02,1.73,.21,1.8,.96,3.08,2.31,3.92,1.36,.85,3.06,1.28,5.03,1.28,1.01,0,1.97-.09,2.87-.28,4.08-.81,7.79-2.9,11.02-6.22,2.7-2.77,5.21-6.54,7.47-11.21l.07-.14,.15-.05c2.37-.81,4.58-1.76,6.56-2.81,1.75-.93,3.79-2.15,6.07-3.65l.46-.31,.13,.54c.31,1.33,.92,2.53,1.81,3.55,1.23,1.48,2.69,2.52,4.33,3.1,1.67,.59,3.67,.89,5.97,.89,3.45,0,6.77-.7,9.86-2.07,1.23-.56,2.88-1.55,4.9-2.94,1.83-1.26,3.12-2.15,3.91-2.7l.48-.33,.12,.57c.28,1.31,.78,2.53,1.49,3.62,1.53,2.31,3.99,3.68,7.31,4.05h.02c.34,0,.87,.06,1.56,.19h1.25c4.07,0,8.34-1.34,12.67-3.98,.75-.45,2.84-1.83,5.86-3.88l.67-.45-.06,.8c-.19,2.54-.23,4.94-.11,7.34l10.33-1.79c.53-3.25,1.11-6.44,1.75-9.48,.65-3.11,1.39-5.95,2.2-8.43l.04-.1,.08-.07c1.97-1.72,3.61-2.99,4.88-3.78,3.16-1.96,5.83-2.39,8.22-1.27,.98,.46,1.35,1.33,1.03,2.47-.38,1.14-1.46,2.12-3.19,2.93-1.7,.79-3.71,1.19-5.98,1.19-1.21,0-2.05,.15-2.51,.46-.44,.29-.69,.69-.78,1.23,0,.05-.01,.3,.07,1.39,.07,.98,.32,1.22,.43,1.28,.2,.11,.67,.24,1.83,.24,.52,0,.82,.22,.98,.41,.31,.37,.4,.95,.27,1.77-.03,.2-.16,.66-.51,1.78-.29,.93-.47,1.59-.53,1.96-.51,3.18,.34,5.41,2.62,6.8,2.84,1.61,7.03,1.04,12.4-1.93,1.54-.86,4.16-2.54,7.78-5.02l.45-.3,.15,.52c.3,1.06,.76,2.07,1.38,3.01,1.05,1.59,2.34,2.76,3.83,3.46,1.49,.71,3.26,1.06,5.25,1.06,5.52,0,10.57-2.28,15-6.78l.21-.21,.26,.15c3.66,2.12,7.82,1.98,12.77-.61l.68-.35-.02,.11c5.13-3.42,10.12-7.69,14.85-12.69l.41-.43,.23,.54c.07,.17,.61,1.05,3.34,5.01,.82,1.24,1.41,2.33,1.77,3.24,.23,.72,.3,1.36,.21,1.93-.23,1.38-1.08,2.61-2.53,3.66-1.43,1.03-2.89,1.56-4.33,1.56-.96,0-1.8-.28-2.5-.85-.69-.56-1.27-1.53-1.77-2.95-.09-.2-.26-.78-.81-2.82l-8.64,6.71,.71,1.14c.84,1.32,2.02,2.29,3.51,2.86,1.52,.59,3.37,.88,5.5,.88,3.79,0,8.36-.99,13.58-2.94,4.32-1.62,8-3.45,10.93-5.42l.53-3.26Zm-203.94,14.48c-1.08,2.31-2.13,4.26-3.15,5.8-1.04,1.57-2.08,2.7-3.1,3.33-1.04,.64-2.17,.97-3.34,.97-1.39,0-2.33-.53-2.78-1.58-.24-.58-.32-1.11-.25-1.56,.22-1.41,1.41-2.73,3.61-4.06,2.1-1.26,4.98-2.42,8.56-3.44l.82-.24-.36,.77Zm9.51-28.28c-.13,.84-.45,2.16-.94,3.92-.49,1.77-1.16,3.95-1.97,6.49l-.05,.1c-1.18,1.75-2.5,3.25-3.94,4.44-1.49,1.24-3.06,1.87-4.67,1.87-1.33,0-2.21-.45-2.63-1.33-.38-.8-.47-1.89-.25-3.24,.21-1.32,.64-2.68,1.28-4.04,1.07-2.26,2.59-4.39,4.51-6.33,2.3-2.3,4.44-3.47,6.36-3.47,1.03,0,1.8,.46,2.27,1.36l.06,.11-.02,.13Zm27.08,8.79c.36-2.22,1.22-4.37,2.56-6.38,1.37-2.06,3.04-3.34,4.96-3.81,.7-.18,.96-.2,1.09-.2,.67,0,1.19,.2,1.53,.61,.43,.5,.56,1.27,.38,2.33-.09,.55-.19,.95-.3,1.24-.53,1.85-1.87,3.37-3.94,4.51-1.24,.72-3.19,1.44-5.79,2.14l-.58,.16,.09-.59Zm72.39-13.74l-3.07,2.68-.61-.46c1.72-3.72,3.24-6.59,4.52-8.53,1.27-1.94,2.5-3.52,3.65-4.71,.83-.77,1.66-1.46,2.49-2.06,1.36-.97,2.31-1.42,2.99-1.42,.36,0,.56,.15,.68,.28,.2,.23,.26,.57,.18,1.03,0,.05-.03,.16-.64,1.71-.91,1.96-2.38,4-4.38,6.07-1.08,1.11-3.04,2.93-5.81,5.39Zm45.43,3.56c-1.46,1.18-2.59,2.44-3.37,3.73-.77,1.29-1.29,2.69-1.53,4.17-.52,3.2,.33,6.26,2.51,9.09l.22,.29-.27,.24c-.8,.7-1.63,1.36-2.49,1.95-.89,.61-1.61,.98-2.21,1.16-.58,.17-1.21,.25-1.87,.25-1.88,0-3.06-1.14-3.52-3.38-.29-1.46-.23-3.32,.15-5.7,.78-3.26,2.25-6.17,4.39-8.67,2.18-2.54,4.78-3.82,7.74-3.82h1.1l-.85,.69Z"/><path class="cls-4" d="M204.15,50.48c-.85-1.72-1.69-3.47-2.57-5.16-2.35,1.1-3.22,4.54-3.34,4.96-.14,.48-.48,1.44-.89,.27-1.16-3.34-.05-6.8,2.31-8.68-.48-.79-.98-1.56-1.5-2.28-2.38,.83-4.11,3.44-4.11,6.52,0,3.76,2.56,6.8,5.72,6.8,1.76,0,3.33-.95,4.38-2.43h0Z"/></svg>